<svg width="15" height="20" viewBox="0 0 15 20" fill="none" xmlns="http://www.w3.org/2000/svg">
<path d="M14.901 5.45833C14.8542 5.34375 14.7969 5.23438 14.7188 5.14062L10.3542 0.364583C10.2552 0.255208 10.1354 0.177083 10.0052 0.109375C9.85417 0.0312499 9.6875 0 9.51042 0H1.18229C0.536458 0 0 0.552083 0 1.24479V18.7031C0 19.401 0.536458 20 1.18229 20H13.8437C14.4896 20 15 19.401 15 18.7031V5.98958C15 5.80208 14.974 5.61979 14.901 5.45833ZM2.5 5.94792C2.5 5.86979 2.59375 5.83854 2.67708 5.83854H6.36458C6.44792 5.83854 6.51042 5.86979 6.51042 5.94792V6.51042C6.51042 6.58333 6.45312 6.67188 6.36458 6.67188H2.67708C2.59375 6.67188 2.5 6.58333 2.5 6.51042V5.94792ZM2.5 12.6146C2.5 12.5365 2.59375 12.5052 2.67708 12.5052H9.04167C9.125 12.5052 9.16667 12.5365 9.16667 12.6146V13.1771C9.16667 13.25 9.13021 13.3385 9.04167 13.3385H2.67708C2.59375 13.3385 2.5 13.25 2.5 13.1771V12.6146ZM10.8333 16.5104C10.8333 16.5833 10.7969 16.6719 10.7083 16.6719H2.67708C2.59375 16.6719 2.5 16.5833 2.5 16.5104V15.9479C2.5 15.8698 2.59375 15.8385 2.67708 15.8385H10.7083C10.7917 15.8385 10.8333 15.8698 10.8333 15.9479V16.5104ZM12.5 9.84375C12.5 9.91667 12.4635 10.0052 12.375 10.0052H2.67708C2.59375 10.0052 2.5 9.91667 2.5 9.84375V9.28125C2.5 9.20312 2.59375 9.17188 2.67708 9.17188H12.375C12.4583 9.17188 12.5 9.20312 12.5 9.28125V9.84375ZM10.0573 5.89062C9.76562 5.89062 9.47917 5.61979 9.47917 5.30208V1.86458L13.1875 5.89062H10.0573Z" fill="black"/>
</svg>
