<svg width="20" height="20" viewBox="0 0 20 20" fill="none" xmlns="http://www.w3.org/2000/svg">
<g clip-path="url(#clip0_1_16)">
<path fill-rule="evenodd" clip-rule="evenodd" d="M9.98667 10.8333C8.35917 10.8333 -0.0258331 4.07583 -0.0258331 4.07583V3.33333C-0.0258331 2.41333 0.720833 1.66666 1.6425 1.66666H18.3308C19.2533 1.66666 20 2.41333 20 3.33333L19.9867 4.16666C19.9867 4.16666 11.6925 10.8333 9.98667 10.8333ZM9.98667 13.125C11.7708 13.125 19.9867 6.66666 19.9867 6.66666L20 16.6667C20 17.5867 19.2533 18.3333 18.3308 18.3333H1.6425C0.721667 18.3333 -0.0258331 17.5867 -0.0258331 16.6667L-0.0124998 6.66666C-0.0124998 6.66666 8.35917 13.125 9.98667 13.125Z" fill="black"/>
</g>
<defs>
<clipPath id="clip0_1_16">
<rect width="20" height="20" fill="white"/>
</clipPath>
</defs>
</svg>
