<svg width="20" height="20" viewBox="0 0 20 20" fill="none" xmlns="http://www.w3.org/2000/svg">
<path fill-rule="evenodd" clip-rule="evenodd" d="M2 0C0.895431 0 0 0.895431 0 2V18C0 19.1046 0.895431 20 2 20H18C19.1046 20 20 19.1046 20 18V2C20 0.895431 19.1046 0 18 0H2ZM11.642 6.344C11.62 6.366 11.6053 6.39533 11.598 6.432L11.235 9.402C11.235 9.41667 11.2277 9.43133 11.213 9.446C11.2057 9.45333 11.1947 9.457 11.18 9.457H9.464C9.43467 9.457 9.42 9.43867 9.42 9.402L9.783 6.432C9.79033 6.39533 9.783 6.366 9.761 6.344C9.739 6.31467 9.70967 6.3 9.673 6.3H8.43C8.39333 6.3 8.36033 6.31467 8.331 6.344C8.30167 6.366 8.28333 6.39533 8.276 6.432L7.363 13.868C7.363 13.956 7.40333 14 7.484 14H8.727C8.76367 14 8.793 13.989 8.815 13.967C8.84433 13.9377 8.86267 13.9047 8.87 13.868L9.244 10.854C9.244 10.8173 9.26233 10.799 9.299 10.799H11.015C11.0443 10.799 11.059 10.8173 11.059 10.854L10.685 13.868C10.6777 13.9047 10.685 13.9377 10.707 13.967C10.729 13.989 10.7583 14 10.795 14H12.049C12.0857 14 12.115 13.989 12.137 13.967C12.1663 13.9377 12.1847 13.9047 12.192 13.868L13.105 6.432C13.1123 6.39533 13.105 6.366 13.083 6.344C13.061 6.31467 13.0317 6.3 12.995 6.3H11.741C11.7043 6.3 11.6713 6.31467 11.642 6.344Z" fill="black"/>
</svg>
