<svg width="20" height="20" viewBox="0 0 20 20" fill="none" xmlns="http://www.w3.org/2000/svg">
<g clip-path="url(#clip0_1_18)">
<path d="M19.9688 15.117L19.0605 19.0545C18.933 19.6112 18.4438 20.0006 17.8707 20.0006C8.01562 19.9998 0 11.9842 0 2.12873C0 1.55608 0.389414 1.06623 0.946094 0.939279L4.88359 0.0310756C5.45703 -0.101815 6.04297 0.195841 6.28125 0.738888L8.09844 4.97717C8.31086 5.47639 8.16758 6.05803 7.74766 6.401L5.64453 8.08967C6.97188 10.7936 9.17031 12.992 11.875 14.3201L13.5969 12.2186C13.9362 11.7975 14.5223 11.6518 15.0215 11.868L19.2598 13.6848C19.7695 13.953 20.1016 14.5467 19.9688 15.117Z" fill="black"/>
</g>
<defs>
<clipPath id="clip0_1_18">
<rect width="20" height="20" fill="white"/>
</clipPath>
</defs>
</svg>
