<svg width="35" height="28" viewBox="0 0 35 28" fill="none" xmlns="http://www.w3.org/2000/svg">
<g clip-path="url(#clip0_1_41)">
<path d="M9.86618 11.1021C9.8268 12.3408 10.4459 12.8893 10.4612 13.2377C10.4539 13.3086 10.4297 13.3767 10.3907 13.4363C10.3517 13.496 10.299 13.5454 10.237 13.5805L9.53696 14.0705C9.44637 14.1341 9.33958 14.1705 9.22907 14.1755C9.20555 14.1745 8.78118 14.2756 8.10907 12.775C7.69901 13.2869 7.17728 13.6981 6.5838 13.9773C5.99033 14.2564 5.34085 14.3961 4.68508 14.3855C3.79477 14.4342 1.38196 13.8802 1.5061 11.3116C1.41914 9.21812 3.36875 7.91765 5.38508 8.02758C5.77336 8.02867 6.56633 8.04781 7.95485 8.37047V7.51625C8.10196 6.06922 7.15094 4.94648 5.5043 5.11492C5.37305 5.11547 4.44336 5.08758 2.99743 5.66781C2.59493 5.85266 2.54352 5.82203 2.40953 5.82203C2.0043 5.82203 2.1711 4.64734 2.24875 4.49859C2.53368 4.14859 4.20985 3.49508 5.85485 3.50437C6.95475 3.4071 8.04875 3.74656 8.90039 4.44937C9.24658 4.83661 9.5107 5.28999 9.67678 5.78214C9.84287 6.27429 9.90748 6.79499 9.86672 7.31281L9.86618 11.1021ZM5.14008 12.8734C6.9136 12.8477 7.66446 11.7813 7.83563 11.2071C7.97016 10.6575 7.94774 10.3097 7.94774 9.70867C7.41891 9.5818 6.65766 9.44344 5.7843 9.44234C4.95578 9.38 3.44258 9.75023 3.50164 11.2066C3.43383 12.1248 4.10977 12.9237 5.14008 12.8734ZM14.4873 14.134C14.0574 14.1734 13.8573 13.8682 13.7938 13.5669L11.0704 4.56258C11.0173 4.41055 10.9823 4.25359 10.9654 4.09336C10.9553 4.0273 10.9719 3.95995 11.0115 3.90612C11.0511 3.85228 11.1104 3.81636 11.1765 3.80625C11.1896 3.80406 11.06 3.80625 12.3933 3.80625C12.8734 3.75812 13.0298 4.13601 13.0796 4.37336L15.033 12.075L16.8465 4.37336C16.8755 4.19726 17.0073 3.76797 17.5465 3.81336H18.4849C18.6036 3.80351 19.0925 3.78601 19.1784 4.38047L21.006 12.1805L23.0223 4.38047C23.0486 4.26125 23.1711 3.75867 23.7158 3.81336H24.7942C24.8407 3.80625 25.1305 3.76906 25.0813 4.28258C25.0578 4.38375 25.2678 3.69961 22.1966 13.574C22.1337 13.8753 21.933 14.1805 21.5031 14.1411H20.481C19.8827 14.204 19.7969 13.6128 19.7876 13.5532L17.9741 6.05391L16.1815 13.5455C16.1727 13.6052 16.0869 14.1963 15.488 14.1334H14.4873V14.134ZM29.4432 14.4419C29.1216 14.4424 27.5882 14.4255 26.3063 13.7698C26.1786 13.7157 26.0699 13.6249 25.9938 13.509C25.9178 13.393 25.8779 13.2571 25.8792 13.1184V12.5305C25.8792 12.0684 26.2183 12.1532 26.3621 12.2084C26.9112 12.4305 27.2634 12.5989 27.9377 12.7334C29.942 13.1452 30.8235 12.6077 31.0395 12.4884C31.7587 12.0613 31.8155 11.0841 31.3266 10.5771C30.7535 10.0964 30.4801 10.0784 28.4211 9.42867C28.1673 9.35812 26.0313 8.68437 26.0263 6.56523C25.993 5.02086 27.3963 3.49289 29.8282 3.50547C30.5211 3.50492 32.3673 3.73133 32.8672 4.35969C32.941 4.47398 32.9777 4.60851 32.9722 4.74469V5.29758C32.9722 5.54039 32.8836 5.6618 32.7059 5.6618C32.2842 5.61476 31.5361 5.05094 30.0174 5.07391C29.6406 5.05422 27.8359 5.12367 27.9169 6.43945C27.8934 7.47633 29.3721 7.86516 29.5411 7.91C31.535 8.50992 32.2016 8.60945 32.993 9.52766C33.9303 10.7445 33.425 12.1691 33.2309 12.5595C32.1874 14.6098 29.4891 14.443 29.4432 14.4419ZM31.6416 20.1764C27.8119 23.0048 22.2523 24.5104 17.5055 24.5104C11.1005 24.5526 4.91138 22.1975 0.154769 17.908C-0.20234 17.5859 0.11266 17.1445 0.546879 17.3901C5.82338 20.4084 11.7975 21.9943 17.8763 21.9904C22.4157 21.966 26.9057 21.0452 31.0882 19.2806C31.7324 19.0072 32.2788 19.7072 31.6416 20.1764ZM33.238 18.3559C32.748 17.7259 29.9961 18.0616 28.764 18.2087C28.3927 18.2509 28.3298 17.9287 28.6661 17.6909C30.8574 16.1503 34.4564 16.5916 34.8698 17.1095C35.2827 17.6274 34.7577 21.2335 32.7064 22.9562C32.3914 23.2225 32.0901 23.082 32.2301 22.732C32.6916 21.5698 33.728 18.9864 33.238 18.3559Z" fill="black"/>
</g>
<defs>
<clipPath id="clip0_1_41">
<rect width="35" height="28" fill="white"/>
</clipPath>
</defs>
</svg>
