<svg width="35" height="35" viewBox="0 0 35 35" fill="none" xmlns="http://www.w3.org/2000/svg">
<path d="M33.2225 1.7774H1.77748V33.2226H33.2225V1.7774Z" fill="#F0DB4F"/>
<path d="M18.8898 26.3019C18.8898 29.3621 17.0929 30.7589 14.4748 30.7589C12.1095 30.7589 10.7408 29.5377 10.0388 28.0567L12.4463 26.6037C12.9095 27.4249 13.3307 28.1198 14.3484 28.1198C15.317 28.1198 15.9349 27.7408 15.9349 26.2598V16.2155H18.8898V26.3019Z" fill="#323330"/>
<path d="M25.8807 30.7589C23.1363 30.7589 21.3605 29.4533 20.4971 27.7408L22.9047 26.3509C23.5364 27.3828 24.3646 28.1478 25.8176 28.1478C27.0389 28.1478 27.8249 27.5372 27.8249 26.688C27.8249 25.6771 27.0248 25.3193 25.6702 24.7226L24.9332 24.4068C22.7994 23.5013 21.3886 22.3572 21.3886 19.9498C21.3886 17.7317 23.0801 16.0471 25.7121 16.0471C27.5933 16.0471 28.9409 16.6999 29.9095 18.4126L27.6073 19.8866C27.102 18.9811 26.5545 18.6232 25.7052 18.6232C24.8418 18.6232 24.2943 19.1708 24.2943 19.8866C24.2943 20.771 24.8418 21.1291 26.1123 21.6834L26.8492 21.9993C29.362 23.0732 30.7728 24.1753 30.7728 26.6459C30.7729 29.299 28.6812 30.7589 25.8807 30.7589Z" fill="#323330"/>
</svg>
