<svg width="35" height="35" viewBox="0 0 35 35" fill="none" xmlns="http://www.w3.org/2000/svg">
<path d="M13.2621 16.4235H20.4435C22.4407 16.4235 24.0343 14.776 24.0343 12.7721V5.92013C24.0343 3.97018 22.3936 2.51098 20.4435 2.18149C18.0363 1.78473 15.4206 1.8049 13.2621 2.18812C10.2227 2.72611 9.67135 3.84912 9.67135 5.9269V7.39341H16.8595V9.57811H6.97492C4.88374 9.57811 3.05458 10.8355 2.48309 13.2227C1.82411 15.9595 1.79724 17.6674 2.48309 20.5253C2.99415 22.6502 4.21122 24.1698 6.30247 24.1698H8.77031V20.8884C8.77024 18.5148 10.8212 16.4235 13.2621 16.4235Z" fill="#347AB4"/>
<path d="M32.469 14.3125C31.9512 12.2348 30.9695 10.668 28.8783 10.668H26.182V13.8553C26.182 16.3298 24.0839 18.4142 21.6901 18.4142H14.5086C12.545 18.4142 10.9178 20.0955 10.9178 22.0656V28.911C10.9178 30.8608 12.6123 32.004 14.5086 32.5622C16.7813 33.2279 18.9667 33.349 21.69 32.5622C23.4989 32.0376 25.2809 30.982 25.2809 28.911V27.4756H18.1061V25.2596H28.8782C30.9695 25.2596 31.7427 23.8004 32.4689 21.6151C33.2221 19.3624 33.1885 17.1972 32.469 14.3125Z" fill="#FFCA1D"/>
<path d="M12.8116 6.12459C12.0952 6.12459 11.5145 5.53731 11.5145 4.81455C11.5209 4.08529 12.0952 3.49802 12.8116 3.49802C13.5215 3.49802 14.1088 4.09172 14.1088 4.81455C14.1087 5.53731 13.5279 6.12459 12.8116 6.12459Z" fill="white"/>
<path d="M21.5269 31.4505C20.8106 31.4505 20.2297 30.8632 20.2297 30.1405C20.2362 29.4112 20.8105 28.8239 21.5269 28.8239C22.2368 28.8239 22.8241 29.4176 22.8241 30.1405C22.8241 30.8632 22.2433 31.4505 21.5269 31.4505Z" fill="white"/>
</svg>
